# xmcd
#
# Track frame offsets:
#	151
#	29806
#	64087
#	81326
#	100675
#	117678
#	138899
#	166646
#	190651
#	218608
#	239425
#
# Disc length: 3597 seconds
#
# Revision: 0
# Processed by: cddbd v1.4PL0 Copyright (c) Steve Scherf et al.
# Submitted via: EasyCDDAExtractor 5.0.4.1
#
DISCID=940e0b0b
DTITLE=大连音像 - 心灵养生.超然物外
DYEAR=2003
DGENRE=Blues
TTITLE0=远古的声音(Ancient voices)
TTITLE1=树叶的旅程(Journey of a leaf)
TTITLE2=秋日(Autumn flyway)
TTITLE3=果树林(Aspengrove)
TTITLE4=深谷之地(Canyonlands)
TTITLE5=雄鹰海湾(Eagle bay)
TTITLE6=雪花的回忆(Memory of snow)
TTITLE7=远方森林(Faraway wood)
TTITLE8=月亮升起(Moonrise)
TTITLE9=海之边缘(Edge of the sea)
TTITLE10=平静的思绪(Tranquil mind)
EXTD=
EXTT0=
EXTT1=
EXTT2=
EXTT3=
EXTT4=
EXTT5=
EXTT6=
EXTT7=
EXTT8=
EXTT9=
EXTT10=
PLAYORDER=
